<svg width="1440" height="787" viewBox="0 0 1440 787" fill="none" xmlns="http://www.w3.org/2000/svg">
    <g clip-path="url(#clip0_176_11990)">
    <rect width="1440" height="787" fill="#20478A"/>
    <path d="M1440 1H0V786.994H1440V1Z" fill="url(#paint0_linear_176_11990)"/>
    <path d="M444.488 1187.36L346.005 914.392L1712.32 -108.621L1810.44 159.638L444.488 1187.36Z" fill="url(#paint1_linear_176_11990)" fill-opacity="0.5"/>
    <path d="M1019.32 1187.36L1117.8 914.392L-248.514 -108.621L-346.632 159.638L1019.32 1187.36Z" fill="url(#paint2_linear_176_11990)" fill-opacity="0.5"/>
    <path d="M192 0L-28 955V0H192Z" fill="url(#paint3_linear_176_11990)" fill-opacity="0.66"/>
    <path d="M1271.81 0L1491.81 955V0H1271.81Z" fill="url(#paint4_linear_176_11990)" fill-opacity="0.88"/>
    </g>
    <defs>
    <linearGradient id="paint0_linear_176_11990" x1="0" y1="393.997" x2="1440" y2="393.997" gradientUnits="userSpaceOnUse">
    <stop stop-color="#F1B72B" stop-opacity="0"/>
    <stop offset="1" stop-color="white" stop-opacity="0.08"/>
    </linearGradient>
    <linearGradient id="paint1_linear_176_11990" x1="783.454" y1="427.32" x2="1098.26" y2="875.993" gradientUnits="userSpaceOnUse">
    <stop stop-color="#F1B72B" stop-opacity="0"/>
    <stop offset="1" stop-color="#FFD4BC" stop-opacity="0.08"/>
    </linearGradient>
    <linearGradient id="paint2_linear_176_11990" x1="680.352" y1="427.32" x2="365.551" y2="875.993" gradientUnits="userSpaceOnUse">
    <stop stop-color="#F1B72B" stop-opacity="0"/>
    <stop offset="1" stop-color="#FFD4BC" stop-opacity="0.08"/>
    </linearGradient>
    <linearGradient id="paint3_linear_176_11990" x1="-117.208" y1="-24.2162" x2="296.291" y2="115.528" gradientUnits="userSpaceOnUse">
    <stop stop-color="#031B34" stop-opacity="0"/>
    <stop offset="1" stop-color="white" stop-opacity="0.04"/>
    </linearGradient>
    <linearGradient id="paint4_linear_176_11990" x1="1581.02" y1="-24.2162" x2="1167.52" y2="115.528" gradientUnits="userSpaceOnUse">
    <stop stop-color="#031B34" stop-opacity="0"/>
    <stop offset="1" stop-color="white" stop-opacity="0.04"/>
    </linearGradient>
    <clipPath id="clip0_176_11990">
    <rect width="1440" height="787" fill="white"/>
    </clipPath>
    </defs>
    </svg>
    