<svg width="166" height="105" viewBox="0 0 166 105" fill="none" xmlns="http://www.w3.org/2000/svg">
    <path d="M1.79634 3.59268C2.78844 3.59268 3.59269 2.78843 3.59269 1.79633C3.59269 0.804238 2.78844 0 1.79634 0C0.80425 0 0 0.804238 0 1.79633C0 2.78843 0.80425 3.59268 1.79634 3.59268Z" fill="white"/>
    <path d="M17.9526 3.59268C18.9447 3.59268 19.7489 2.78843 19.7489 1.79633C19.7489 0.804238 18.9447 0 17.9526 0C16.9605 0 16.1562 0.804238 16.1562 1.79633C16.1562 2.78843 16.9605 3.59268 17.9526 3.59268Z" fill="white"/>
    <path d="M34.1088 3.59268C35.1009 3.59268 35.9052 2.78843 35.9052 1.79633C35.9052 0.804238 35.1009 0 34.1088 0C33.1168 0 32.3125 0.804238 32.3125 1.79633C32.3125 2.78843 33.1168 3.59268 34.1088 3.59268Z" fill="white"/>
    <path d="M52.0614 1.79633C52.0614 2.78485 51.2536 3.59268 50.2651 3.59268C49.2766 3.59268 48.4688 2.78485 48.4688 1.79633C48.4688 0.80781 49.2766 0 50.2651 0C51.2536 0 52.0614 0.80781 52.0614 1.79633Z" fill="white"/>
    <path d="M68.2177 1.79633C68.2177 2.78485 67.4099 3.59268 66.4213 3.59268C65.4328 3.59268 64.625 2.78485 64.625 1.79633C64.625 0.80781 65.4328 0 66.4213 0C67.4099 0 68.2177 0.80781 68.2177 1.79633Z" fill="white"/>
    <path d="M82.5776 3.59268C83.5697 3.59268 84.3739 2.78843 84.3739 1.79633C84.3739 0.804238 83.5697 0 82.5776 0C81.5855 0 80.7812 0.804238 80.7812 1.79633C80.7812 2.78843 81.5855 3.59268 82.5776 3.59268Z" fill="white"/>
    <path d="M98.7358 3.59268C99.7279 3.59268 100.532 2.78843 100.532 1.79633C100.532 0.804238 99.7279 0 98.7358 0C97.7437 0 96.9395 0.804238 96.9395 1.79633C96.9395 2.78843 97.7437 3.59268 98.7358 3.59268Z" fill="white"/>
    <path d="M114.892 3.59268C115.884 3.59268 116.688 2.78843 116.688 1.79633C116.688 0.804238 115.884 0 114.892 0C113.9 0 113.096 0.804238 113.096 1.79633C113.096 2.78843 113.9 3.59268 114.892 3.59268Z" fill="white"/>
    <path d="M131.048 3.59268C132.04 3.59268 132.845 2.78843 132.845 1.79633C132.845 0.804238 132.04 0 131.048 0C130.056 0 129.252 0.804238 129.252 1.79633C129.252 2.78843 130.056 3.59268 131.048 3.59268Z" fill="white"/>
    <path d="M147.205 3.59268C148.197 3.59268 149.001 2.78843 149.001 1.79633C149.001 0.804238 148.197 0 147.205 0C146.212 0 145.408 0.804238 145.408 1.79633C145.408 2.78843 146.212 3.59268 147.205 3.59268Z" fill="white"/>
    <path d="M163.361 3.59268C164.353 3.59268 165.157 2.78843 165.157 1.79633C165.157 0.804238 164.353 0 163.361 0C162.369 0 161.564 0.804238 161.564 1.79633C161.564 2.78843 162.369 3.59268 163.361 3.59268Z" fill="white"/>
    <path d="M1.79634 17.9521C2.78844 17.9521 3.59269 17.1478 3.59269 16.1557C3.59269 15.1636 2.78844 14.3594 1.79634 14.3594C0.80425 14.3594 0 15.1636 0 16.1557C0 17.1478 0.80425 17.9521 1.79634 17.9521Z" fill="white"/>
    <path d="M17.9526 17.9521C18.9447 17.9521 19.7489 17.1478 19.7489 16.1557C19.7489 15.1636 18.9447 14.3594 17.9526 14.3594C16.9605 14.3594 16.1562 15.1636 16.1562 16.1557C16.1562 17.1478 16.9605 17.9521 17.9526 17.9521Z" fill="white"/>
    <path d="M34.1088 17.9521C35.1009 17.9521 35.9052 17.1478 35.9052 16.1557C35.9052 15.1636 35.1009 14.3594 34.1088 14.3594C33.1168 14.3594 32.3125 15.1636 32.3125 16.1557C32.3125 17.1478 33.1168 17.9521 34.1088 17.9521Z" fill="white"/>
    <path d="M52.0614 16.1557C52.0614 17.1442 51.2536 17.9521 50.2651 17.9521C49.2766 17.9521 48.4688 17.1442 48.4688 16.1557C48.4688 15.1672 49.2766 14.3594 50.2651 14.3594C51.2536 14.3594 52.0614 15.1672 52.0614 16.1557Z" fill="white"/>
    <path d="M68.2177 16.1557C68.2177 17.1442 67.4099 17.9521 66.4213 17.9521C65.4328 17.9521 64.625 17.1442 64.625 16.1557C64.625 15.1672 65.4328 14.3594 66.4213 14.3594C67.4099 14.3594 68.2177 15.1672 68.2177 16.1557Z" fill="white"/>
    <path d="M82.5776 17.9521C83.5697 17.9521 84.3739 17.1478 84.3739 16.1557C84.3739 15.1636 83.5697 14.3594 82.5776 14.3594C81.5855 14.3594 80.7812 15.1636 80.7812 16.1557C80.7812 17.1478 81.5855 17.9521 82.5776 17.9521Z" fill="white"/>
    <path d="M98.7358 17.9521C99.7279 17.9521 100.532 17.1478 100.532 16.1557C100.532 15.1636 99.7279 14.3594 98.7358 14.3594C97.7437 14.3594 96.9395 15.1636 96.9395 16.1557C96.9395 17.1478 97.7437 17.9521 98.7358 17.9521Z" fill="white"/>
    <path d="M114.892 17.9521C115.884 17.9521 116.688 17.1478 116.688 16.1557C116.688 15.1636 115.884 14.3594 114.892 14.3594C113.9 14.3594 113.096 15.1636 113.096 16.1557C113.096 17.1478 113.9 17.9521 114.892 17.9521Z" fill="white"/>
    <path d="M131.048 17.9521C132.04 17.9521 132.845 17.1478 132.845 16.1557C132.845 15.1636 132.04 14.3594 131.048 14.3594C130.056 14.3594 129.252 15.1636 129.252 16.1557C129.252 17.1478 130.056 17.9521 131.048 17.9521Z" fill="white"/>
    <path d="M147.205 17.9521C148.197 17.9521 149.001 17.1478 149.001 16.1557C149.001 15.1636 148.197 14.3594 147.205 14.3594C146.212 14.3594 145.408 15.1636 145.408 16.1557C145.408 17.1478 146.212 17.9521 147.205 17.9521Z" fill="white"/>
    <path d="M163.361 17.9521C164.353 17.9521 165.157 17.1478 165.157 16.1557C165.157 15.1636 164.353 14.3594 163.361 14.3594C162.369 14.3594 161.564 15.1636 161.564 16.1557C161.564 17.1478 162.369 17.9521 163.361 17.9521Z" fill="white"/>
    <path d="M1.79634 32.3139C2.78844 32.3139 3.59269 31.5096 3.59269 30.5175C3.59269 29.5254 2.78844 28.7212 1.79634 28.7212C0.80425 28.7212 0 29.5254 0 30.5175C0 31.5096 0.80425 32.3139 1.79634 32.3139Z" fill="white"/>
    <path d="M17.9526 32.3139C18.9447 32.3139 19.7489 31.5096 19.7489 30.5175C19.7489 29.5254 18.9447 28.7212 17.9526 28.7212C16.9605 28.7212 16.1562 29.5254 16.1562 30.5175C16.1562 31.5096 16.9605 32.3139 17.9526 32.3139Z" fill="white"/>
    <path d="M34.1088 32.3139C35.1009 32.3139 35.9052 31.5096 35.9052 30.5175C35.9052 29.5254 35.1009 28.7212 34.1088 28.7212C33.1168 28.7212 32.3125 29.5254 32.3125 30.5175C32.3125 31.5096 33.1168 32.3139 34.1088 32.3139Z" fill="white"/>
    <path d="M52.0614 30.5175C52.0614 31.5061 51.2536 32.3139 50.2651 32.3139C49.2766 32.3139 48.4688 31.5061 48.4688 30.5175C48.4688 29.529 49.2766 28.7212 50.2651 28.7212C51.2536 28.7212 52.0614 29.529 52.0614 30.5175Z" fill="white"/>
    <path d="M68.2177 30.5175C68.2177 31.5061 67.4099 32.3139 66.4213 32.3139C65.4328 32.3139 64.625 31.5061 64.625 30.5175C64.625 29.529 65.4328 28.7212 66.4213 28.7212C67.4099 28.7212 68.2177 29.529 68.2177 30.5175Z" fill="white"/>
    <path d="M82.5776 32.3139C83.5697 32.3139 84.3739 31.5096 84.3739 30.5175C84.3739 29.5254 83.5697 28.7212 82.5776 28.7212C81.5855 28.7212 80.7812 29.5254 80.7812 30.5175C80.7812 31.5096 81.5855 32.3139 82.5776 32.3139Z" fill="white"/>
    <path d="M98.7358 32.3139C99.7279 32.3139 100.532 31.5096 100.532 30.5175C100.532 29.5254 99.7279 28.7212 98.7358 28.7212C97.7437 28.7212 96.9395 29.5254 96.9395 30.5175C96.9395 31.5096 97.7437 32.3139 98.7358 32.3139Z" fill="white"/>
    <path d="M114.892 32.3139C115.884 32.3139 116.688 31.5096 116.688 30.5175C116.688 29.5254 115.884 28.7212 114.892 28.7212C113.9 28.7212 113.096 29.5254 113.096 30.5175C113.096 31.5096 113.9 32.3139 114.892 32.3139Z" fill="white"/>
    <path d="M131.048 32.3139C132.04 32.3139 132.845 31.5096 132.845 30.5175C132.845 29.5254 132.04 28.7212 131.048 28.7212C130.056 28.7212 129.252 29.5254 129.252 30.5175C129.252 31.5096 130.056 32.3139 131.048 32.3139Z" fill="white"/>
    <path d="M147.205 32.3139C148.197 32.3139 149.001 31.5096 149.001 30.5175C149.001 29.5254 148.197 28.7212 147.205 28.7212C146.212 28.7212 145.408 29.5254 145.408 30.5175C145.408 31.5096 146.212 32.3139 147.205 32.3139Z" fill="white"/>
    <path d="M163.361 32.3139C164.353 32.3139 165.157 31.5096 165.157 30.5175C165.157 29.5254 164.353 28.7212 163.361 28.7212C162.369 28.7212 161.564 29.5254 161.564 30.5175C161.564 31.5096 162.369 32.3139 163.361 32.3139Z" fill="white"/>
    <path d="M3.59269 44.8764C3.59269 45.8649 2.78487 46.6728 1.79634 46.6728C0.807823 46.6728 0 45.8649 0 44.8764C0 43.8879 0.807823 43.0801 1.79634 43.0801C2.78487 43.0801 3.59269 43.8879 3.59269 44.8764Z" fill="white"/>
    <path d="M19.7489 44.8764C19.7489 45.8649 18.9411 46.6728 17.9526 46.6728C16.9641 46.6728 16.1562 45.8649 16.1562 44.8764C16.1562 43.8879 16.9641 43.0801 17.9526 43.0801C18.9411 43.0801 19.7489 43.8879 19.7489 44.8764Z" fill="white"/>
    <path d="M35.9052 44.8764C35.9052 45.8649 35.0974 46.6728 34.1088 46.6728C33.1203 46.6728 32.3125 45.8649 32.3125 44.8764C32.3125 43.8879 33.1203 43.0801 34.1088 43.0801C35.0974 43.0801 35.9052 43.8879 35.9052 44.8764Z" fill="white"/>
    <path d="M52.0614 44.8764C52.0614 45.8649 51.2536 46.6728 50.2651 46.6728C49.2766 46.6728 48.4688 45.8649 48.4688 44.8764C48.4688 43.8879 49.2766 43.0801 50.2651 43.0801C51.2536 43.0801 52.0614 43.8879 52.0614 44.8764Z" fill="white"/>
    <path d="M68.2177 44.8764C68.2177 45.8649 67.4099 46.6728 66.4213 46.6728C65.4328 46.6728 64.625 45.8649 64.625 44.8764C64.625 43.8879 65.4328 43.0801 66.4213 43.0801C67.4099 43.0801 68.2177 43.8879 68.2177 44.8764Z" fill="white"/>
    <path d="M84.3739 44.8764C84.3739 45.8649 83.5661 46.6728 82.5776 46.6728C81.5891 46.6728 80.7812 45.8649 80.7812 44.8764C80.7812 43.8879 81.5891 43.0801 82.5776 43.0801C83.5661 43.0801 84.3739 43.8879 84.3739 44.8764Z" fill="white"/>
    <path d="M100.532 44.8764C100.532 45.8649 99.7243 46.6728 98.7358 46.6728C97.7473 46.6728 96.9395 45.8649 96.9395 44.8764C96.9395 43.8879 97.7473 43.0801 98.7358 43.0801C99.7243 43.0801 100.532 43.8879 100.532 44.8764Z" fill="white"/>
    <path d="M116.688 44.8764C116.688 45.8649 115.881 46.6728 114.892 46.6728C113.904 46.6728 113.096 45.8649 113.096 44.8764C113.096 43.8879 113.904 43.0801 114.892 43.0801C115.881 43.0801 116.688 43.8879 116.688 44.8764Z" fill="white"/>
    <path d="M132.845 44.8764C132.845 45.8649 132.037 46.6728 131.048 46.6728C130.06 46.6728 129.252 45.8649 129.252 44.8764C129.252 43.8879 130.06 43.0801 131.048 43.0801C132.037 43.0801 132.845 43.8879 132.845 44.8764Z" fill="white"/>
    <path d="M149.001 44.8764C149.001 45.8649 148.193 46.6728 147.205 46.6728C146.216 46.6728 145.408 45.8649 145.408 44.8764C145.408 43.8879 146.216 43.0801 147.205 43.0801C148.193 43.0801 149.001 43.8879 149.001 44.8764Z" fill="white"/>
    <path d="M165.157 44.8764C165.157 45.8649 164.349 46.6728 163.361 46.6728C162.372 46.6728 161.564 45.8649 161.564 44.8764C161.564 43.8879 162.372 43.0801 163.361 43.0801C164.349 43.0801 165.157 43.8879 165.157 44.8764Z" fill="white"/>
    <path d="M3.59269 59.2368C3.59269 60.2253 2.78487 61.0331 1.79634 61.0331C0.807823 61.0331 0 60.2253 0 59.2368C0 58.2483 0.807823 57.4404 1.79634 57.4404C2.78487 57.4404 3.59269 58.2483 3.59269 59.2368Z" fill="white"/>
    <path d="M19.7489 59.2368C19.7489 60.2253 18.9411 61.0331 17.9526 61.0331C16.9641 61.0331 16.1562 60.2253 16.1562 59.2368C16.1562 58.2483 16.9641 57.4404 17.9526 57.4404C18.9411 57.4404 19.7489 58.2483 19.7489 59.2368Z" fill="white"/>
    <path d="M35.9052 59.2368C35.9052 60.2253 35.0974 61.0331 34.1088 61.0331C33.1203 61.0331 32.3125 60.2253 32.3125 59.2368C32.3125 58.2483 33.1203 57.4404 34.1088 57.4404C35.0974 57.4404 35.9052 58.2483 35.9052 59.2368Z" fill="white"/>
    <path d="M52.0614 59.2368C52.0614 60.2253 51.2536 61.0331 50.2651 61.0331C49.2766 61.0331 48.4688 60.2253 48.4688 59.2368C48.4688 58.2483 49.2766 57.4404 50.2651 57.4404C51.2536 57.4404 52.0614 58.2483 52.0614 59.2368Z" fill="white"/>
    <path d="M68.2177 59.2368C68.2177 60.2253 67.4099 61.0331 66.4213 61.0331C65.4328 61.0331 64.625 60.2253 64.625 59.2368C64.625 58.2483 65.4328 57.4404 66.4213 57.4404C67.4099 57.4404 68.2177 58.2483 68.2177 59.2368Z" fill="white"/>
    <path d="M84.3739 59.2368C84.3739 60.2253 83.5661 61.0331 82.5776 61.0331C81.5891 61.0331 80.7812 60.2253 80.7812 59.2368C80.7812 58.2483 81.5891 57.4404 82.5776 57.4404C83.5661 57.4404 84.3739 58.2483 84.3739 59.2368Z" fill="white"/>
    <path d="M100.532 59.2368C100.532 60.2253 99.7243 61.0331 98.7358 61.0331C97.7473 61.0331 96.9395 60.2253 96.9395 59.2368C96.9395 58.2483 97.7473 57.4404 98.7358 57.4404C99.7243 57.4404 100.532 58.2483 100.532 59.2368Z" fill="white"/>
    <path d="M116.688 59.2368C116.688 60.2253 115.881 61.0331 114.892 61.0331C113.904 61.0331 113.096 60.2253 113.096 59.2368C113.096 58.2483 113.904 57.4404 114.892 57.4404C115.881 57.4404 116.688 58.2483 116.688 59.2368Z" fill="white"/>
    <path d="M132.845 59.2368C132.845 60.2253 132.037 61.0331 131.048 61.0331C130.06 61.0331 129.252 60.2253 129.252 59.2368C129.252 58.2483 130.06 57.4404 131.048 57.4404C132.037 57.4404 132.845 58.2483 132.845 59.2368Z" fill="white"/>
    <path d="M149.001 59.2368C149.001 60.2253 148.193 61.0331 147.205 61.0331C146.216 61.0331 145.408 60.2253 145.408 59.2368C145.408 58.2483 146.216 57.4404 147.205 57.4404C148.193 57.4404 149.001 58.2483 149.001 59.2368Z" fill="white"/>
    <path d="M165.157 59.2368C165.157 60.2253 164.349 61.0331 163.361 61.0331C162.372 61.0331 161.564 60.2253 161.564 59.2368C161.564 58.2483 162.372 57.4404 163.361 57.4404C164.349 57.4404 165.157 58.2483 165.157 59.2368Z" fill="white"/>
    <path d="M3.59269 73.5976C3.59269 74.5861 2.78487 75.394 1.79634 75.394C0.807823 75.394 0 74.5861 0 73.5976C0 72.6091 0.807823 71.8013 1.79634 71.8013C2.78487 71.8013 3.59269 72.6091 3.59269 73.5976Z" fill="white"/>
    <path d="M19.7489 73.5976C19.7489 74.5861 18.9411 75.394 17.9526 75.394C16.9641 75.394 16.1562 74.5861 16.1562 73.5976C16.1562 72.6091 16.9641 71.8013 17.9526 71.8013C18.9411 71.8013 19.7489 72.6091 19.7489 73.5976Z" fill="white"/>
    <path d="M35.9052 73.5976C35.9052 74.5861 35.0974 75.394 34.1088 75.394C33.1203 75.394 32.3125 74.5861 32.3125 73.5976C32.3125 72.6091 33.1203 71.8013 34.1088 71.8013C35.0974 71.8013 35.9052 72.6091 35.9052 73.5976Z" fill="white"/>
    <path d="M52.0614 73.5976C52.0614 74.5861 51.2536 75.394 50.2651 75.394C49.2766 75.394 48.4688 74.5861 48.4688 73.5976C48.4688 72.6091 49.2766 71.8013 50.2651 71.8013C51.2536 71.8013 52.0614 72.6091 52.0614 73.5976Z" fill="white"/>
    <path d="M68.2177 73.5976C68.2177 74.5861 67.4099 75.394 66.4213 75.394C65.4328 75.394 64.625 74.5861 64.625 73.5976C64.625 72.6091 65.4328 71.8013 66.4213 71.8013C67.4099 71.8013 68.2177 72.6091 68.2177 73.5976Z" fill="white"/>
    <path d="M84.3739 73.5976C84.3739 74.5861 83.5661 75.394 82.5776 75.394C81.5891 75.394 80.7812 74.5861 80.7812 73.5976C80.7812 72.6091 81.5891 71.8013 82.5776 71.8013C83.5661 71.8013 84.3739 72.6091 84.3739 73.5976Z" fill="white"/>
    <path d="M100.532 73.5976C100.532 74.5861 99.7243 75.394 98.7358 75.394C97.7473 75.394 96.9395 74.5861 96.9395 73.5976C96.9395 72.6091 97.7473 71.8013 98.7358 71.8013C99.7243 71.8013 100.532 72.6091 100.532 73.5976Z" fill="white"/>
    <path d="M116.688 73.5976C116.688 74.5861 115.881 75.394 114.892 75.394C113.904 75.394 113.096 74.5861 113.096 73.5976C113.096 72.6091 113.904 71.8013 114.892 71.8013C115.881 71.8013 116.688 72.6091 116.688 73.5976Z" fill="white"/>
    <path d="M132.845 73.5976C132.845 74.5861 132.037 75.394 131.048 75.394C130.06 75.394 129.252 74.5861 129.252 73.5976C129.252 72.6091 130.06 71.8013 131.048 71.8013C132.037 71.8013 132.845 72.6091 132.845 73.5976Z" fill="white"/>
    <path d="M149.001 73.5976C149.001 74.5861 148.193 75.394 147.205 75.394C146.216 75.394 145.408 74.5861 145.408 73.5976C145.408 72.6091 146.216 71.8013 147.205 71.8013C148.193 71.8013 149.001 72.6091 149.001 73.5976Z" fill="white"/>
    <path d="M165.157 73.5976C165.157 74.5861 164.349 75.394 163.361 75.394C162.372 75.394 161.564 74.5861 161.564 73.5976C161.564 72.6091 162.372 71.8013 163.361 71.8013C164.349 71.8013 165.157 72.6091 165.157 73.5976Z" fill="white"/>
    <path d="M1.79634 89.7529C2.78844 89.7529 3.59269 88.9486 3.59269 87.9565C3.59269 86.9644 2.78844 86.1602 1.79634 86.1602C0.80425 86.1602 0 86.9644 0 87.9565C0 88.9486 0.80425 89.7529 1.79634 89.7529Z" fill="white"/>
    <path d="M17.9526 89.7529C18.9447 89.7529 19.7489 88.9486 19.7489 87.9565C19.7489 86.9644 18.9447 86.1602 17.9526 86.1602C16.9605 86.1602 16.1562 86.9644 16.1562 87.9565C16.1562 88.9486 16.9605 89.7529 17.9526 89.7529Z" fill="white"/>
    <path d="M34.1088 89.7529C35.1009 89.7529 35.9052 88.9486 35.9052 87.9565C35.9052 86.9644 35.1009 86.1602 34.1088 86.1602C33.1168 86.1602 32.3125 86.9644 32.3125 87.9565C32.3125 88.9486 33.1168 89.7529 34.1088 89.7529Z" fill="white"/>
    <path d="M52.0614 87.9565C52.0614 88.945 51.2536 89.7529 50.2651 89.7529C49.2766 89.7529 48.4688 88.945 48.4688 87.9565C48.4688 86.968 49.2766 86.1602 50.2651 86.1602C51.2536 86.1708 52.0614 86.968 52.0614 87.9565Z" fill="white"/>
    <path d="M68.2177 87.9565C68.2177 88.945 67.4099 89.7529 66.4213 89.7529C65.4328 89.7529 64.625 88.945 64.625 87.9565C64.625 86.968 65.4328 86.1602 66.4213 86.1602C67.4099 86.1708 68.2177 86.968 68.2177 87.9565Z" fill="white"/>
    <path d="M82.5776 89.7529C83.5697 89.7529 84.3739 88.9486 84.3739 87.9565C84.3739 86.9644 83.5697 86.1602 82.5776 86.1602C81.5855 86.1602 80.7812 86.9644 80.7812 87.9565C80.7812 88.9486 81.5855 89.7529 82.5776 89.7529Z" fill="white"/>
    <path d="M98.7358 89.7529C99.7279 89.7529 100.532 88.9486 100.532 87.9565C100.532 86.9644 99.7279 86.1602 98.7358 86.1602C97.7437 86.1602 96.9395 86.9644 96.9395 87.9565C96.9395 88.9486 97.7437 89.7529 98.7358 89.7529Z" fill="white"/>
    <path d="M114.892 89.7529C115.884 89.7529 116.688 88.9486 116.688 87.9565C116.688 86.9644 115.884 86.1602 114.892 86.1602C113.9 86.1602 113.096 86.9644 113.096 87.9565C113.096 88.9486 113.9 89.7529 114.892 89.7529Z" fill="white"/>
    <path d="M131.048 89.7529C132.04 89.7529 132.845 88.9486 132.845 87.9565C132.845 86.9644 132.04 86.1602 131.048 86.1602C130.056 86.1602 129.252 86.9644 129.252 87.9565C129.252 88.9486 130.056 89.7529 131.048 89.7529Z" fill="white"/>
    <path d="M147.205 89.7529C148.197 89.7529 149.001 88.9486 149.001 87.9565C149.001 86.9644 148.197 86.1602 147.205 86.1602C146.212 86.1602 145.408 86.9644 145.408 87.9565C145.408 88.9486 146.212 89.7529 147.205 89.7529Z" fill="white"/>
    <path d="M163.361 89.7529C164.353 89.7529 165.157 88.9486 165.157 87.9565C165.157 86.9644 164.353 86.1602 163.361 86.1602C162.369 86.1602 161.564 86.9644 161.564 87.9565C161.564 88.9486 162.369 89.7529 163.361 89.7529Z" fill="white"/>
    <path d="M3.59269 102.329C3.59269 103.317 2.78487 104.125 1.79634 104.125C0.807823 104.125 0 103.317 0 102.329C0 101.34 0.807823 100.532 1.79634 100.532C2.78487 100.532 3.59269 101.329 3.59269 102.329Z" fill="white"/>
    <path d="M19.7489 102.329C19.7489 103.317 18.9411 104.125 17.9526 104.125C16.9641 104.125 16.1562 103.317 16.1562 102.329C16.1562 101.34 16.9641 100.532 17.9526 100.532C18.9411 100.532 19.7489 101.329 19.7489 102.329Z" fill="white"/>
    <path d="M35.9052 102.329C35.9052 103.317 35.0974 104.125 34.1088 104.125C33.1203 104.125 32.3125 103.317 32.3125 102.329C32.3125 101.34 33.1203 100.532 34.1088 100.532C35.0974 100.532 35.9052 101.329 35.9052 102.329Z" fill="white"/>
    <path d="M52.0614 102.329C52.0614 103.317 51.2536 104.125 50.2651 104.125C49.2766 104.125 48.4688 103.317 48.4688 102.329C48.4688 101.34 49.2766 100.532 50.2651 100.532C51.2536 100.532 52.0614 101.329 52.0614 102.329Z" fill="white"/>
    <path d="M68.2177 102.329C68.2177 103.317 67.4099 104.125 66.4213 104.125C65.4328 104.125 64.625 103.317 64.625 102.329C64.625 101.34 65.4328 100.532 66.4213 100.532C67.4099 100.532 68.2177 101.329 68.2177 102.329Z" fill="white"/>
    <path d="M84.3739 102.329C84.3739 103.317 83.5661 104.125 82.5776 104.125C81.5891 104.125 80.7812 103.317 80.7812 102.329C80.7812 101.34 81.5891 100.532 82.5776 100.532C83.5661 100.532 84.3739 101.329 84.3739 102.329Z" fill="white"/>
    <path d="M100.532 102.329C100.532 103.317 99.7243 104.125 98.7358 104.125C97.7473 104.125 96.9395 103.317 96.9395 102.329C96.9395 101.34 97.7473 100.532 98.7358 100.532C99.7243 100.532 100.532 101.329 100.532 102.329Z" fill="white"/>
    <path d="M116.688 102.329C116.688 103.317 115.881 104.125 114.892 104.125C113.904 104.125 113.096 103.317 113.096 102.329C113.096 101.34 113.904 100.532 114.892 100.532C115.881 100.532 116.688 101.329 116.688 102.329Z" fill="white"/>
    <path d="M132.845 102.329C132.845 103.317 132.037 104.125 131.048 104.125C130.06 104.125 129.252 103.317 129.252 102.329C129.252 101.34 130.06 100.532 131.048 100.532C132.037 100.532 132.845 101.329 132.845 102.329Z" fill="white"/>
    <path d="M149.001 102.329C149.001 103.317 148.193 104.125 147.205 104.125C146.216 104.125 145.408 103.317 145.408 102.329C145.408 101.34 146.216 100.532 147.205 100.532C148.193 100.532 149.001 101.329 149.001 102.329Z" fill="white"/>
    <path d="M165.157 102.329C165.157 103.317 164.349 104.125 163.361 104.125C162.372 104.125 161.564 103.317 161.564 102.329C161.564 101.34 162.372 100.532 163.361 100.532C164.349 100.532 165.157 101.329 165.157 102.329Z" fill="white"/>
    </svg>
    